<svg width="51" height="52" viewBox="0 0 51 52" fill="none" xmlns="http://www.w3.org/2000/svg">
<path d="M46.4427 8.99999H48.336C49.0433 8.99999 49.7216 9.28095 50.2217 9.78104C50.7218 10.2811 51.0027 10.9594 51.0027 11.6667V30.3333C51.0027 31.0406 50.7218 31.7188 50.2217 32.2189C49.7216 32.719 49.0433 33 48.336 33H43.0027L31.8827 17.4373C31.2359 16.5324 30.3224 15.8523 29.27 15.4922C28.2176 15.1322 27.0789 15.1102 26.0134 15.4293L19.384 17.4187C18.4618 17.6947 17.4821 17.7161 16.5488 17.4804C15.6154 17.2447 14.7633 16.7608 14.0827 16.08L13.3014 15.2987C13.0224 15.0198 12.8088 14.6824 12.6759 14.311C12.5431 13.9396 12.4943 13.5433 12.5331 13.1508C12.5718 12.7582 12.6972 12.3791 12.9002 12.0409C13.1031 11.7026 13.3786 11.4136 13.7067 11.1947L28.1094 1.59466C28.9692 1.02109 29.9771 0.709683 31.0105 0.69832C32.044 0.686958 33.0585 0.976126 33.9307 1.53066L45.0134 8.58399C45.4399 8.85504 45.9373 8.99931 46.4427 8.99999ZM8.40537 31.12L4.09604 34.8907C3.80152 35.1488 3.56749 35.4687 3.41058 35.8276C3.25367 36.1864 3.17773 36.5755 3.18817 36.967C3.19861 37.3585 3.29516 37.7429 3.47097 38.0929C3.64677 38.4429 3.89752 38.7499 4.20537 38.992L17.912 49.7653C18.2134 50.0025 18.5623 50.1719 18.935 50.262C19.3078 50.3521 19.6955 50.3607 20.0719 50.2873C20.4483 50.2139 20.8044 50.0602 21.116 49.8367C21.4276 49.6131 21.6873 49.325 21.8774 48.992L23.7547 45.7067C24.3137 44.7283 24.5485 43.598 24.4254 42.4779C24.3023 41.3579 23.8276 40.3056 23.0694 39.472L15.864 31.5467C14.9244 30.5128 13.6166 29.889 12.2219 29.8092C10.8271 29.7294 9.45677 30.2001 8.40537 31.12ZM13.7894 6.33333H3.00004C2.2928 6.33333 1.61452 6.61428 1.11442 7.11438C0.614325 7.61447 0.333374 8.29275 0.333374 8.99999V29.0427C0.333517 30.1182 0.658863 31.1686 1.26671 32.056L1.46404 31.88L5.77071 28.1093C7.61068 26.4993 10.009 25.6755 12.45 25.8151C14.8909 25.9547 17.1797 27.0466 18.824 28.856L26.0294 36.7813C27.3555 38.2397 28.1858 40.0804 28.4014 42.0397C28.6169 43.999 28.2067 45.9762 27.2294 47.688L25.4827 50.744C26.2363 51.0297 27.0448 51.141 27.8475 51.0694C28.6502 50.9978 29.4263 50.7453 30.1174 50.3307L41.8774 43.2747C42.1927 43.0852 42.4654 42.8326 42.6784 42.5326C42.8913 42.2327 43.0399 41.8919 43.1148 41.5317C43.1897 41.1716 43.1892 40.7998 43.1135 40.4398C43.0378 40.0799 42.8884 39.7394 42.6747 39.44L28.6294 19.7627C28.4676 19.5367 28.2393 19.3669 27.9764 19.277C27.7134 19.1871 27.4289 19.1816 27.1627 19.2613L20.5334 21.248C18.9195 21.7321 17.2047 21.7703 15.5708 21.3586C13.937 20.9469 12.4451 20.1005 11.2534 18.9093L10.472 18.128C9.7744 17.4307 9.24017 16.5873 8.90788 15.6586C8.57558 14.73 8.4535 13.7391 8.55043 12.7575C8.64737 11.776 8.9609 10.8281 9.46842 9.98236C9.97595 9.1366 10.6648 8.414 11.4854 7.86666L13.7894 6.33333Z" fill="white"/>
</svg>
