<svg width="78" height="64" viewBox="0 0 78 64" fill="none" xmlns="http://www.w3.org/2000/svg">
<path fill-rule="evenodd" clip-rule="evenodd" d="M75.7207 63H39.5297V49.046C39.5297 44.439 42.5507 40.38 46.9617 39.056L57.6247 35.857L68.2877 39.056C72.6997 40.38 75.7207 44.439 75.7207 49.046V63Z" fill="#66BB6A"/>
<path d="M74.7211 49.0465C74.7211 45.0114 72.1574 41.441 68.3705 40.1334L68.0004 40.0142L57.6244 36.901L47.2494 40.0142C43.2612 41.2113 40.5297 44.8812 40.5297 49.0465V61.9996H74.7211V49.0465ZM76.7211 62.9996C76.7211 63.5517 76.2732 63.9994 75.7211 63.9996H39.5297C38.9774 63.9996 38.5297 63.5519 38.5297 62.9996V49.0465C38.5297 43.9978 41.8404 39.5491 46.6742 38.0982L57.3373 34.899L57.4799 34.8678C57.6239 34.8467 57.7719 34.8568 57.9125 34.899L68.5746 38.0982H68.5756L69.0238 38.2428C73.6136 39.8275 76.7211 44.1555 76.7211 49.0465V62.9996Z" fill="white"/>
<path fill-rule="evenodd" clip-rule="evenodd" d="M67.125 21.3809L64.75 12.3329H50.5L48.125 21.3809L38.625 26.8099H76.625L67.125 21.3809Z" fill="#66BB6A"/>
<path d="M64.75 11.3329L64.917 11.3466C65.2993 11.4111 65.6158 11.6943 65.7168 12.079L67.9844 20.7206L77.1211 25.9413C77.5147 26.1662 77.708 26.6282 77.5918 27.0663C77.4754 27.5045 77.0785 27.8094 76.625 27.8094H38.625C38.1716 27.8094 37.7746 27.5045 37.6582 27.0663C37.542 26.6282 37.7354 26.1662 38.1289 25.9413L47.2647 20.7206L49.5332 12.079L49.5889 11.9208C49.7485 11.5676 50.1023 11.3329 50.5 11.3329H64.75ZM49.0918 21.6346C49.0237 21.8943 48.8542 22.1157 48.6211 22.2489L42.3916 25.8094H72.8584L66.6289 22.2489C66.3958 22.1157 66.2264 21.8943 66.1582 21.6346L63.9795 13.3329H51.2705L49.0918 21.6346Z" fill="white"/>
<path d="M67.125 20.3809V22.3809H48.125V20.3809H67.125Z" fill="white"/>
<path fill-rule="evenodd" clip-rule="evenodd" d="M57.625 43.0957C52.628 43.0957 48.577 39.0447 48.577 34.0477V26.8097H66.673V34.0477C66.673 39.0447 62.622 43.0957 57.625 43.0957Z" fill="#66BB6A"/>
<path d="M65.6727 27.8097H49.577V34.048C49.5772 38.4925 53.1803 42.0957 57.6249 42.0958C62.0695 42.0958 65.6726 38.4926 65.6727 34.048V27.8097ZM67.6727 34.048C67.6726 39.5971 63.1741 44.0958 57.6249 44.0958C52.0758 44.0957 47.5772 39.5971 47.577 34.048V26.8097L47.5819 26.7072C47.6332 26.203 48.0593 25.8097 48.577 25.8097H66.6727L66.7753 25.8146C67.2795 25.8658 67.6727 26.2919 67.6727 26.8097V34.048Z" fill="white"/>
<path fill-rule="evenodd" clip-rule="evenodd" d="M46.3925 63H2.10754V45.924C2.10754 40.288 5.80354 35.319 11.2025 33.7L24.2495 29.786L37.2975 33.7C42.6965 35.319 46.3925 40.288 46.3925 45.924V63Z" fill="#66BB6A"/>
<path d="M45.3927 45.9237C45.3926 40.8915 42.1954 36.4364 37.4718 34.8065L37.0099 34.6581L24.2491 30.8299L11.4904 34.6581H11.4894C6.51391 36.1503 3.10768 40.7294 3.10754 45.9237V61.9999H45.3927V45.9237ZM47.3927 62.9999C47.3927 63.5521 46.9449 63.9998 46.3927 63.9999H2.10754C1.55526 63.9999 1.10754 63.5521 1.10754 62.9999V45.9237C1.10768 39.8464 5.09312 34.488 10.9152 32.742L23.962 28.828L24.1046 28.7967C24.2487 28.7756 24.3966 28.7858 24.5372 28.828L37.5851 32.742L38.1251 32.9159C43.6521 34.8231 47.3926 40.0362 47.3927 45.9237V62.9999Z" fill="white"/>
<path fill-rule="evenodd" clip-rule="evenodd" d="M35.875 12.0713L32.969 1.00031H15.531L12.625 12.0713L1 18.7143H47.5L35.875 12.0713Z" fill="#66BB6A"/>
<path d="M32.9687 0.000305176L33.1367 0.0139771C33.5187 0.0787603 33.8356 0.36185 33.9365 0.746399L36.7344 11.4114L47.9961 17.846C48.3897 18.071 48.5831 18.5328 48.4668 18.971C48.3504 19.4093 47.9534 19.7142 47.5 19.7142H0.999978C0.546546 19.7142 0.149564 19.4093 0.0331807 18.971C-0.083177 18.5328 0.110211 18.071 0.503884 17.846L11.7646 11.4114L14.5635 0.746399L14.6201 0.588196C14.7797 0.235063 15.1336 0.000305176 15.5312 0.000305176H32.9687ZM13.5918 12.3255C13.5235 12.5851 13.3541 12.8066 13.1211 12.9398L4.7656 17.7142H43.7344L35.3789 12.9398C35.1459 12.8066 34.9764 12.5851 34.9082 12.3255L32.1982 2.00031H16.3017L13.5918 12.3255Z" fill="white"/>
<path d="M35.875 11.0713V13.0713H12.625V11.0713H35.875Z" fill="white"/>
<path fill-rule="evenodd" clip-rule="evenodd" d="M24.25 38.6426C18.136 38.6426 13.179 33.6856 13.179 27.5716V18.7136H35.321V27.5716C35.321 33.6856 30.364 38.6426 24.25 38.6426Z" fill="#66BB6A"/>
<path d="M34.3206 19.7136H14.179V27.572C14.1792 33.1336 18.6887 37.6423 24.2502 37.6423C29.8117 37.6422 34.3203 33.1335 34.3206 27.572V19.7136ZM36.3206 27.572C36.3203 34.238 30.9163 39.6422 24.2502 39.6423C17.5841 39.6423 12.1792 34.2381 12.179 27.572V18.7136L12.1838 18.6111C12.2352 18.107 12.6613 17.7136 13.179 17.7136H35.3206L35.4231 17.7185C35.9274 17.7697 36.3206 18.1958 36.3206 18.7136V27.572Z" fill="white"/>
<mask id="mask0_1_258" style="mask-type:luminance" maskUnits="userSpaceOnUse" x="0" y="0" width="78" height="64">
<path fill-rule="evenodd" clip-rule="evenodd" d="M0 64H77.625V0H0V64Z" fill="white"/>
</mask>
<g mask="url(#mask0_1_258)">
<path d="M39.75 44.286L39.8525 44.2909C40.3567 44.3422 40.75 44.7683 40.75 45.286V62.9999C40.75 63.5522 40.3023 63.9999 39.75 63.9999H8.75C8.19772 63.9999 7.75 63.5522 7.75 62.9999V45.286L7.75488 45.1835C7.80621 44.6793 8.23232 44.286 8.75 44.286H39.75ZM9.75 61.9999H38.75V46.286H9.75V61.9999Z" fill="white"/>
<path d="M9.96387 45.2864V34.2141C9.96387 33.6618 10.4116 33.2141 10.9639 33.2141C11.5162 33.2141 11.9639 33.6618 11.9639 34.2141V45.2864C11.9637 45.8385 11.5161 46.2864 10.9639 46.2864C10.4117 46.2864 9.96401 45.8385 9.96387 45.2864Z" fill="white"/>
<path d="M36.5361 45.2864V34.2141C36.5361 33.6618 36.9838 33.2141 37.5361 33.2141C38.0884 33.2141 38.5361 33.6618 38.5361 34.2141V45.2864C38.536 45.8385 38.0883 46.2864 37.5361 46.2864C36.9839 46.2864 36.5363 45.8385 36.5361 45.2864Z" fill="white"/>
<path fill-rule="evenodd" clip-rule="evenodd" d="M35.3213 51.9287C35.3213 53.1517 34.3303 54.1427 33.1073 54.1427C31.8833 54.1427 30.8923 53.1517 30.8923 51.9287C30.8923 50.7057 31.8833 49.7137 33.1073 49.7137C34.3303 49.7137 35.3213 50.7057 35.3213 51.9287Z" fill="white"/>
<path fill-rule="evenodd" clip-rule="evenodd" d="M17.6073 51.9287C17.6073 53.1517 16.6163 54.1427 15.3923 54.1427C14.1693 54.1427 13.1783 53.1517 13.1783 51.9287C13.1783 50.7057 14.1693 49.7137 15.3923 49.7137C16.6163 49.7137 17.6073 50.7057 17.6073 51.9287Z" fill="white"/>
<path fill-rule="evenodd" clip-rule="evenodd" d="M19 29C19.8019 31.329 21.9585 33 24.4995 33C27.0415 33 29.1981 31.329 30 29" fill="#66BB6A"/>
<path d="M29.0547 28.6748C29.2345 28.1527 29.8031 27.8751 30.3253 28.0547C30.8474 28.2345 31.125 28.8031 30.9454 29.3252C30.0142 32.0296 27.4975 33.9998 24.5001 34C21.597 34 19.1437 32.1513 18.1465 29.5772L18.0547 29.3252L18.0264 29.2276C17.9104 28.734 18.1852 28.2233 18.6749 28.0547C19.1642 27.8863 19.6946 28.1193 19.9073 28.5791L19.9454 28.6748L20.085 29.0342C20.8443 30.7943 22.5454 32 24.5001 32C26.586 31.9998 28.3821 30.628 29.0547 28.6748Z" fill="white"/>
</g>
</svg>
