<svg width="25" height="27" viewBox="0 0 25 27" fill="none" xmlns="http://www.w3.org/2000/svg">
<path fill-rule="evenodd" clip-rule="evenodd" d="M20.1974 0.00801771C20.4097 0.0314031 20.614 0.10233 20.7951 0.215527C20.9762 0.328725 21.1295 0.481282 21.2436 0.661863C25.7921 7.86411 25.1055 15.5098 21.3061 20.3255C19.4085 22.7291 16.7434 24.4064 13.6348 24.9025C10.9228 25.3331 7.95915 24.8513 4.97278 23.2877C4.69845 24.1534 4.50372 24.9934 4.39143 25.7851C4.3368 26.1571 4.13708 26.4922 3.83596 26.7172C3.53484 26.9422 3.15684 27.0388 2.78469 26.9858C2.41254 26.9328 2.07654 26.7345 1.85022 26.4344C1.62389 26.1343 1.52567 25.7567 1.57705 25.3843C1.7745 24.0653 2.10892 22.7706 2.57488 21.5209C0.39018 19.1188 -0.206809 16.0798 0.0589935 13.3649C0.351802 10.37 1.71777 7.49738 3.49594 6.01486C5.87253 4.03485 8.36851 3.22181 10.5347 2.82382C11.4814 2.65998 12.4346 2.5362 13.3917 2.45283C14.0726 2.3846 14.7677 2.33912 15.4329 2.17423C16.4175 1.93614 17.3586 1.54474 18.2217 1.01437C18.8499 0.622063 19.3858 -0.082952 20.1974 0.00801771ZM6.04025 20.6354C7.62085 17.4131 10.205 14.3244 13.5694 12.6414C13.7379 12.5589 13.8883 12.4438 14.0121 12.3028C14.1359 12.1619 14.2305 11.9978 14.2906 11.8201C14.3506 11.6424 14.3749 11.4545 14.362 11.2674C14.3491 11.0802 14.2993 10.8975 14.2154 10.7297C14.1316 10.5618 14.0153 10.4123 13.8734 10.2896C13.7315 10.167 13.5667 10.0736 13.3885 10.0149C13.2103 9.95627 13.0223 9.93345 12.8352 9.9478C12.6482 9.96216 12.4658 10.0134 12.2987 10.0985C8.59167 11.9521 5.75171 15.1573 3.90531 18.5758C4.2723 19.1738 4.72755 19.7129 5.25564 20.1749C5.51907 20.3388 5.77966 20.4923 6.04025 20.6354Z" fill="white"/>
</svg>
